<svg width="314" height="267" viewBox="0 0 314 267" fill="none" xmlns="http://www.w3.org/2000/svg">
<rect x="0.5" y="0.5" width="302" height="76" rx="18.5" fill="#000026" stroke="url(#paint0_radial_2_7)"/>
<path d="M76.92 53.4C73.8533 53.4 71.1867 52.8 68.92 51.6C66.6533 50.3733 64.9067 48.64 63.68 46.4C62.48 44.16 61.88 41.4933 61.88 38.4C61.88 35.3067 62.48 32.64 63.68 30.4C64.9067 28.16 66.6533 26.44 68.92 25.24C71.1867 24.0133 73.8533 23.4 76.92 23.4C80.4933 23.4 83.6533 24.2267 86.4 25.88L85.56 28.72C82.8933 27.12 80.0533 26.32 77.04 26.32C74.6133 26.32 72.5067 26.8133 70.72 27.8C68.96 28.7867 67.6 30.1867 66.64 32C65.68 33.7867 65.2 35.92 65.2 38.4C65.2 40.8533 65.68 42.9867 66.64 44.8C67.6 46.6133 68.96 48.0133 70.72 49C72.5067 49.9867 74.6133 50.48 77.04 50.48C80 50.48 82.84 49.68 85.56 48.08L86.4 50.92C83.6533 52.5733 80.4933 53.4 76.92 53.4ZM104.378 53.4C101.391 53.4 98.7648 52.7867 96.4981 51.56C94.2581 50.3067 92.5248 48.56 91.2981 46.32C90.0715 44.0533 89.4581 41.4133 89.4581 38.4C89.4581 35.36 90.0715 32.72 91.2981 30.48C92.5248 28.24 94.2581 26.5067 96.4981 25.28C98.7648 24.0267 101.391 23.4 104.378 23.4C107.418 23.4 110.045 24.0267 112.258 25.28C114.498 26.5067 116.231 28.24 117.458 30.48C118.711 32.72 119.338 35.36 119.338 38.4C119.338 41.4133 118.711 44.0533 117.458 46.32C116.231 48.56 114.498 50.3067 112.258 51.56C110.045 52.7867 107.418 53.4 104.378 53.4ZM104.378 50.48C106.751 50.48 108.805 49.9867 110.538 49C112.298 47.9867 113.658 46.5867 114.618 44.8C115.578 42.9867 116.058 40.8533 116.058 38.4C116.058 35.9467 115.578 33.8267 114.618 32.04C113.658 30.2267 112.298 28.8267 110.538 27.84C108.805 26.8267 106.751 26.32 104.378 26.32C102.031 26.32 99.9781 26.8267 98.2181 27.84C96.4581 28.8267 95.0981 30.2267 94.1381 32.04C93.2048 33.8267 92.7381 35.9467 92.7381 38.4C92.7381 40.8533 93.2048 42.9867 94.1381 44.8C95.0981 46.5867 96.4581 47.9867 98.2181 49C99.9781 49.9867 102.031 50.48 104.378 50.48ZM124.931 53V23.8H129.091L138.771 43.12H138.851L148.531 23.8H152.691V53H149.491V28.76H149.411L140.371 46.8H137.251L128.211 28.76H128.131V53H124.931ZM160.526 53V23.8H163.846V53H160.526ZM171.689 53V23.8H175.329L191.089 47.92H191.169V23.8H194.369V53H190.769L174.969 28.88H174.889V53H171.689ZM215.606 53.4C212.353 53.4 209.553 52.8 207.206 51.6C204.886 50.4 203.099 48.68 201.846 46.44C200.593 44.1733 199.966 41.4933 199.966 38.4C199.966 35.28 200.593 32.6 201.846 30.36C203.099 28.12 204.873 26.4 207.166 25.2C209.486 24 212.246 23.4 215.446 23.4C217.206 23.4 218.873 23.6 220.446 24C222.019 24.3733 223.446 24.96 224.726 25.76L223.886 28.52C222.713 27.8 221.393 27.2533 219.926 26.88C218.486 26.5067 216.993 26.32 215.446 26.32C212.939 26.32 210.779 26.8 208.966 27.76C207.179 28.72 205.793 30.1067 204.806 31.92C203.846 33.7067 203.366 35.8667 203.366 38.4C203.366 40.9333 203.846 43.1067 204.806 44.92C205.793 46.7067 207.193 48.08 209.006 49.04C210.846 50 213.046 50.48 215.606 50.48C217.019 50.48 218.419 50.3333 219.806 50.04C221.219 49.7467 222.446 49.3333 223.486 48.8L222.886 50.04V39.28H211.966V36.52H226.086V51.16C224.699 51.8533 223.073 52.4 221.206 52.8C219.339 53.2 217.473 53.4 215.606 53.4Z" fill="white"/>
<rect x="71.7071" y="210.196" width="245" height="77.3424" rx="9.5" transform="rotate(-44.4233 71.7071 210.196)" fill="#000026" stroke="url(#paint1_radial_2_7)"/>
<path d="M161.199 198.11C159.94 199.339 158.54 200.444 157.001 201.425C155.481 202.388 154.058 203.068 152.733 203.467L151.351 200.792C152.222 200.5 153.132 200.115 154.081 199.636C155.03 199.12 155.961 198.546 156.874 197.916C157.768 197.267 158.577 196.589 159.302 195.881C160.982 194.242 161.953 192.66 162.217 191.135C162.499 189.593 162.063 188.23 160.908 187.046C160.256 186.379 159.573 185.965 158.858 185.805C158.144 185.608 157.39 185.618 156.595 185.835C155.782 186.032 154.901 186.371 153.952 186.849C153.023 187.31 152.026 187.835 150.963 188.426C149.805 189.072 148.686 189.624 147.605 190.082C146.506 190.522 145.437 190.82 144.398 190.977C143.36 191.097 142.361 191.009 141.403 190.715C140.445 190.383 139.529 189.768 138.653 188.871C136.939 187.116 136.284 185.128 136.688 182.907C137.074 180.668 138.459 178.384 140.844 176.056C142.066 174.864 143.398 173.805 144.843 172.879C146.287 171.916 147.616 171.234 148.827 170.834L150.209 173.51C149.035 173.91 147.793 174.527 146.482 175.36C145.152 176.174 143.943 177.111 142.855 178.173C141.195 179.794 140.215 181.328 139.915 182.777C139.614 184.225 139.995 185.493 141.057 186.581C141.671 187.21 142.317 187.605 142.994 187.764C143.671 187.923 144.388 187.913 145.144 187.733C145.92 187.535 146.744 187.234 147.616 186.83C148.489 186.388 149.447 185.881 150.491 185.309C151.706 184.644 152.882 184.074 154.02 183.597C155.157 183.083 156.255 182.757 157.313 182.619C158.389 182.462 159.435 182.541 160.45 182.855C161.445 183.149 162.409 183.774 163.34 184.728C165.11 186.541 165.811 188.633 165.443 191.005C165.075 193.339 163.661 195.707 161.199 198.11ZM182.491 177.326C180.354 179.412 178.046 180.808 175.567 181.513C173.088 182.181 170.628 182.142 168.185 181.396C165.724 180.631 163.441 179.17 161.336 177.014C159.213 174.839 157.808 172.521 157.121 170.061C156.434 167.601 156.463 165.15 157.209 162.708C157.956 160.228 159.398 157.944 161.535 155.858C163.71 153.735 166.028 152.348 168.487 151.699C170.947 151.012 173.398 151.042 175.84 151.788C178.302 152.515 180.594 153.967 182.718 156.142C184.823 158.298 186.219 160.625 186.905 163.123C187.592 165.582 187.572 168.043 186.844 170.505C186.117 172.929 184.666 175.202 182.491 177.326ZM180.451 175.236C182.149 173.578 183.274 171.791 183.825 169.874C184.377 167.92 184.372 165.968 183.811 164.019C183.231 162.051 182.085 160.189 180.371 158.433C178.657 156.678 176.833 155.496 174.898 154.888C172.944 154.261 170.993 154.209 169.044 154.732C167.096 155.218 165.273 156.29 163.575 157.948C161.895 159.587 160.78 161.384 160.228 163.338C159.658 165.274 159.663 167.226 160.243 169.194C160.823 171.124 161.97 172.967 163.683 174.723C165.397 176.478 167.221 177.679 169.156 178.325C171.091 178.933 173.042 178.984 175.009 178.48C176.958 177.957 178.772 176.875 180.451 175.236ZM206.837 153.559C204.7 155.646 202.392 157.042 199.913 157.747C197.435 158.415 194.974 158.376 192.532 157.63C190.071 156.865 187.788 155.404 185.683 153.248C183.559 151.072 182.154 148.755 181.467 146.295C180.78 143.835 180.81 141.384 181.556 138.942C182.303 136.461 183.744 134.178 185.882 132.092C188.057 129.968 190.374 128.582 192.834 127.933C195.293 127.246 197.744 127.275 200.187 128.022C202.649 128.749 204.941 130.2 207.065 132.376C209.17 134.532 210.565 136.859 211.252 139.356C211.939 141.816 211.918 144.277 211.191 146.738C210.464 149.162 209.013 151.436 206.837 153.559ZM204.798 151.47C206.496 149.812 207.621 148.025 208.172 146.108C208.723 144.153 208.719 142.202 208.158 140.252C207.578 138.284 206.431 136.422 204.717 134.667C203.004 132.911 201.179 131.73 199.244 131.122C197.291 130.495 195.34 130.443 193.391 130.966C191.443 131.452 189.62 132.524 187.921 134.181C186.242 135.821 185.127 137.617 184.575 139.572C184.005 141.507 184.01 143.459 184.589 145.427C185.169 147.358 186.316 149.201 188.03 150.957C189.744 152.712 191.568 153.913 193.502 154.558C195.437 155.166 197.389 155.218 199.356 154.714C201.305 154.19 203.118 153.109 204.798 151.47ZM221.265 138.917L200.868 118.021L203.473 115.479L231.599 121.73L231.656 121.674L214.808 104.414L217.098 102.179L237.495 123.074L234.919 125.589L206.764 119.365L206.707 119.421L223.555 136.681L221.265 138.917Z" fill="white"/>
<defs>
<radialGradient id="paint0_radial_2_7" cx="0" cy="0" r="1" gradientUnits="userSpaceOnUse" gradientTransform="translate(12.9662 6.89175e-06) rotate(37.8471) scale(100.157 364.655)">
<stop stop-color="#0D3AFF"/>
<stop offset="0.510417" stop-color="#7F2FA5"/>
<stop offset="1" stop-color="#ED254E"/>
</radialGradient>
<radialGradient id="paint1_radial_2_7" cx="0" cy="0" r="1" gradientUnits="userSpaceOnUse" gradientTransform="translate(81.527 210.189) rotate(44.237) scale(89.6226 336.624)">
<stop stop-color="#0D3AFF"/>
<stop offset="0.510417" stop-color="#7F2FA5"/>
<stop offset="1" stop-color="#ED254E"/>
</radialGradient>
</defs>
</svg>
